<?xml version="1.0" standalone="no"?>
<!DOCTYPE svg PUBLIC "-//W3C//DTD SVG 20010904//EN"
 "http://www.w3.org/TR/2001/REC-SVG-20010904/DTD/svg10.dtd">
<svg version="1.0" xmlns="http://www.w3.org/2000/svg"
 width="300.000000pt" height="300.000000pt" viewBox="0 0 300.000000 300.000000"
 preserveAspectRatio="xMidYMid meet">
<metadata>
Created by potrace 1.11, written by Peter Selinger 2001-2013
</metadata>
<g transform="translate(0.000000,300.000000) scale(0.100000,-0.100000)"
fill="#000000" stroke="none">
<path d="M2030 2296 c-137 -29 -243 -88 -329 -182 -73 -80 -95 -143 -96 -279
0 -103 2 -114 32 -177 57 -121 154 -202 303 -252 41 -13 152 -39 245 -56 247
-45 315 -85 315 -184 0 -96 -91 -158 -245 -164 -161 -7 -283 39 -400 150 l-70
68 -112 -112 -112 -111 27 -35 c70 -91 256 -202 408 -243 111 -30 325 -30 436
-1 196 53 330 162 379 310 25 76 28 207 5 285 -33 112 -120 209 -241 267 -92
44 -151 61 -325 90 -69 12 -149 28 -179 38 -178 55 -188 226 -17 282 54 17
173 15 242 -5 77 -22 119 -44 200 -106 l67 -51 106 113 c58 62 106 116 106
120 0 16 -129 117 -194 152 -150 81 -389 117 -551 83z"/>
<path d="M830 1740 c0 -608 0 -611 -63 -679 -42 -44 -84 -61 -149 -61 -87 1
-148 39 -210 130 l-16 25 -111 -109 -110 -110 17 -29 c27 -47 125 -131 183
-159 80 -37 153 -52 259 -52 263 0 426 114 506 354 17 50 19 106 22 648 l3
592 -165 0 -166 0 0 -550z"/>
</g>
</svg>
