<?xml version="1.0" standalone="no"?>
<!DOCTYPE svg PUBLIC "-//W3C//DTD SVG 20010904//EN"
 "http://www.w3.org/TR/2001/REC-SVG-20010904/DTD/svg10.dtd">
<svg version="1.0" xmlns="http://www.w3.org/2000/svg"
 width="300.000000pt" height="300.000000pt" viewBox="0 0 300.000000 300.000000"
 preserveAspectRatio="xMidYMid meet">
<metadata>
Created by potrace 1.11, written by Peter Selinger 2001-2013
</metadata>
<g transform="translate(0.000000,300.000000) scale(0.100000,-0.100000)"
fill="#000000" stroke="none">
<path d="M2650 2655 c-189 -189 -342 -346 -340 -348 3 -2 43 -13 90 -25 47
-12 118 -38 158 -58 73 -36 226 -149 220 -163 -2 -4 -51 -59 -109 -120 l-106
-113 -67 51 c-117 89 -209 123 -331 123 -155 0 -245 -65 -232 -166 4 -31 15
-49 45 -76 48 -43 107 -62 272 -90 174 -29 233 -46 325 -90 121 -58 208 -155
241 -267 23 -78 20 -209 -5 -285 -49 -148 -183 -257 -379 -310 -111 -29 -325
-29 -436 1 -152 41 -338 152 -408 243 l-27 35 112 111 112 112 70 -68 c117
-111 239 -157 400 -150 154 6 245 68 245 164 0 99 -69 139 -310 183 -195 36
-255 53 -335 93 -93 46 -186 132 -208 191 -3 7 -113 -96 -246 -228 l-241 -240
0 563 0 562 -165 0 -165 0 0 -550 c0 -608 0 -611 -63 -679 -42 -44 -84 -61
-149 -61 -87 1 -148 39 -210 130 l-16 25 -111 -109 -110 -110 17 -29 c27 -47
125 -131 183 -159 74 -34 146 -50 240 -52 l79 -1 -348 -347 -347 -348 1503 0
1502 0 0 1500 c0 825 -1 1500 -3 1500 -1 0 -157 -155 -347 -345z m-1515 -1602
c-52 -179 -165 -293 -336 -338 -30 -8 -63 -15 -74 -15 -14 0 48 68 200 220
138 138 221 215 223 205 2 -8 -4 -41 -13 -72z"/>
<path d="M2030 2295 c-186 -37 -349 -157 -400 -293 -39 -102 -36 -283 5 -338
13 -18 36 3 339 306 259 258 322 326 308 332 -28 11 -182 7 -252 -7z"/>
</g>
</svg>
